<?xml version="1.0" encoding="utf-8"?>
<!-- Generator: Adobe Illustrator 19.1.0, SVG Export Plug-In . SVG Version: 6.00 Build 0)  -->
<svg version="1.1" baseProfile="tiny" id="Layer_1" xmlns="http://www.w3.org/2000/svg" xmlns:xlink="http://www.w3.org/1999/xlink"
	 x="0px" y="0px" viewBox="0 0 1256 1130.3" xml:space="preserve">
<path fill="#FFFFFF" d="M1006.8,0L757.7,210.2v249.1h18.1v-0.1c0.8,0,1.6,0,2.3,0.1h0.7c40.5-0.1,77.1-16.8,103.4-43.6v43.6v106.4
	c0,174.6-142,316.6-316.6,316.6s-316.6-142-316.6-316.6s142-316.6,316.6-316.6h96V0h-96C253.8,0,0,253.8,0,565.7
	s253.8,565.7,565.7,565.7c311.9,0,565.7-253.8,565.7-565.7V459.3v-43.6c26.3,26.8,62.9,43.6,103.4,43.6h0.7c0.8,0,1.6,0,2.3-0.1v0.1
	h18.1V210.2L1006.8,0z"/>
</svg>
