<?xml version="1.0" encoding="utf-8"?>
<!-- Generator: Adobe Illustrator 18.0.0, SVG Export Plug-In . SVG Version: 6.00 Build 0)  -->
<!DOCTYPE svg PUBLIC "-//W3C//DTD SVG 1.1 Tiny//EN" "http://www.w3.org/Graphics/SVG/1.1/DTD/svg11-tiny.dtd">
<svg version="1.1" baseProfile="tiny" id="Layer_1" xmlns="http://www.w3.org/2000/svg" xmlns:xlink="http://www.w3.org/1999/xlink"
	 x="0px" y="0px" width="431.7px" height="977.7px" viewBox="0 0 431.7 977.7" xml:space="preserve">
<g>
	<g>
		<path fill="#BB3D3E" d="M301.2,336c32.9-24.3,54.1-64.9,54.1-121.2c0-97.2-63.1-204.3-140.9-204.3S73.5,117.6,73.5,214.9
			c0,56.3,21.2,96.9,54.1,121.2C54.7,445.9,14,677.8,14,818.7c0,189.6,400.8,189.6,400.8,0C414.8,677.8,374.1,445.9,301.2,336z"/>
	</g>
	<path fill="#231F20" d="M307.3,259.5c0,39.7-41.6,72-92.9,72s-92.9-32.2-92.9-72S307.3,219.8,307.3,259.5z"/>
</g>
</svg>
