<?xml version="1.0" encoding="utf-8"?>
<!-- Generator: Adobe Illustrator 18.0.0, SVG Export Plug-In . SVG Version: 6.00 Build 0)  -->
<!DOCTYPE svg PUBLIC "-//W3C//DTD SVG 1.1 Tiny//EN" "http://www.w3.org/Graphics/SVG/1.1/DTD/svg11-tiny.dtd">
<svg version="1.1" baseProfile="tiny" id="Layer_1" xmlns="http://www.w3.org/2000/svg" xmlns:xlink="http://www.w3.org/1999/xlink"
	 x="0px" y="0px" width="1920px" height="1080px" viewBox="0 0 1920 1080" xml:space="preserve">
<g>
	<circle fill="#DAC167" cx="143" cy="176" r="100"/>
	<circle fill="#F6A3C1" cx="374.6" cy="176" r="100"/>
	<circle fill="#4B7F94" cx="606.1" cy="176" r="100"/>
	<circle fill="#FFF548" cx="837.7" cy="176" r="100"/>
	<circle fill="#C5B0CF" cx="1069.3" cy="176" r="100"/>
	<circle fill="#E86E27" cx="1300.9" cy="176" r="100"/>
	<circle fill="#E4B089" cx="1532.4" cy="176" r="100"/>
	<circle fill="#2382C4" cx="1764" cy="176" r="100"/>
</g>
<g>
	<circle fill="#E6E6E6" cx="143" cy="419" r="100"/>
	<circle fill="#94C84A" cx="374.6" cy="419" r="100"/>
	<circle fill="#B8B292" cx="606.1" cy="419" r="100"/>
	<circle fill="#D2455B" cx="837.7" cy="419" r="100"/>
	<circle fill="#A77D57" cx="1069.3" cy="419" r="100"/>
	<circle fill="#F5911F" cx="1300.9" cy="419" r="100"/>
	<circle fill="#644D24" cx="1532.4" cy="419" r="100"/>
	<circle fill="#C62F30" cx="1764" cy="419" r="100"/>
</g>
<g>
	<circle fill="#EE2A24" cx="143" cy="662" r="100"/>
	<circle fill="#D67D53" cx="374.6" cy="662" r="100"/>
	<circle cx="606.1" cy="662" r="100"/>
	<circle fill="#89380D" cx="837.7" cy="662" r="100"/>
	<circle fill="#5D7ECD" cx="1069.3" cy="662" r="100"/>
	<circle fill="#D52872" cx="1300.9" cy="662" r="100"/>
	<circle fill="#F7C01E" cx="1532.4" cy="662" r="100"/>
	<circle fill="#86C28C" cx="1764" cy="662" r="100"/>
</g>
<g>
	<circle fill="#5E20AB" cx="143" cy="905" r="100"/>
	<circle fill="#EF522A" cx="374.6" cy="905" r="100"/>
	<circle fill="#F99C1D" cx="606.1" cy="905" r="100"/>
	<circle fill="#F86CA0" cx="837.7" cy="905" r="100"/>
	<circle fill="#8B8867" cx="1069.3" cy="905" r="100"/>
	<circle fill="#934A7F" cx="1300.9" cy="905" r="100"/>
	<circle fill="#8B8867" cx="1532.4" cy="905" r="100"/>
	<circle fill="#771D03" cx="1764" cy="905" r="100"/>
</g>
</svg>
